<?xml version="1.0" standalone="no"?>
<!DOCTYPE svg PUBLIC "-//W3C//DTD SVG 20010904//EN"
 "http://www.w3.org/TR/2001/REC-SVG-20010904/DTD/svg10.dtd">
<svg version="1.0" xmlns="http://www.w3.org/2000/svg"
 width="1587.000000pt" height="327.000000pt" viewBox="0 0 1587.000000 327.000000"
 preserveAspectRatio="xMidYMid meet">

<g transform="translate(0.000000,327.000000) scale(0.100000,-0.100000)"
fill="#000000" stroke="none">
<path d="M921 3247 c-10 -13 -9 -19 9 -37 30 -30 18 -36 -35 -15 -36 13 -49
14 -60 5 -11 -9 -12 -17 -4 -31 7 -15 6 -19 -6 -19 -39 0 -208 -64 -264 -100
-215 -139 -341 -366 -341 -614 0 -94 20 -207 48 -264 17 -36 17 -38 -2 -71
-15 -26 -19 -52 -19 -110 1 -125 65 -239 157 -277 38 -16 44 -24 56 -63 7 -26
14 -54 17 -63 4 -12 0 -18 -10 -18 -24 0 -37 -33 -37 -94 l0 -55 -97 -58 c-53
-32 -123 -74 -157 -93 -41 -24 -64 -45 -71 -64 -10 -29 -5 -47 76 -266 47
-130 63 -217 80 -440 10 -137 17 -178 30 -191 22 -22 125 -56 229 -74 113 -21
382 -21 525 0 61 8 148 20 195 25 158 19 265 41 320 66 51 23 69 25 225 27
190 2 215 10 241 74 20 46 17 167 -5 250 -41 158 -113 184 -305 107 -33 -13
-61 -23 -62 -21 -2 2 32 107 76 234 43 127 82 252 85 277 l7 47 -58 57 c-33
31 -83 78 -112 104 -28 26 -52 55 -52 63 0 8 11 33 25 55 37 59 82 202 101
320 12 78 15 148 12 277 l-4 173 96 0 c96 0 96 0 128 33 63 65 36 113 -106
183 l-80 39 -31 75 c-55 131 -110 219 -185 295 -108 110 -227 160 -409 172
-81 5 -97 8 -83 18 27 20 18 25 -19 9 -43 -18 -59 -11 -44 18 13 24 4 36 -37
44 -21 4 -34 1 -43 -9z m59 -27 c0 -5 -4 -10 -10 -10 -5 0 -10 5 -10 10 0 6 5
10 10 10 6 0 10 -4 10 -10z m-75 -50 c17 -7 15 -9 -12 -9 -18 -1 -33 4 -33 9
0 12 17 12 45 0z m495 -95 c17 -9 30 -20 30 -26 0 -8 -52 17 -79 38 -13 10 24
1 49 -12z m-760 -19 c0 -8 -91 -66 -103 -66 -7 0 13 16 43 35 55 36 60 38 60
31z m68 -18 c-6 -17 -74 -50 -94 -46 -11 2 0 12 32 30 54 30 68 34 62 16z m72
7 c0 -2 -10 -10 -22 -16 -21 -11 -22 -11 -9 4 13 16 31 23 31 12z m710 -27
c17 -12 30 -28 30 -35 0 -9 -13 -4 -35 14 -32 25 -44 43 -30 43 3 0 19 -10 35
-22z m-779 -56 c-5 -10 -27 -23 -48 -30 l-38 -11 33 29 c37 34 69 41 53 12z
m-237 -46 c-21 -25 -45 -46 -52 -46 -12 0 -12 3 -1 18 18 23 83 81 88 77 1 -2
-14 -24 -35 -49z m121 14 c-28 -29 -85 -55 -106 -48 -6 2 7 20 27 41 29 29 45
37 73 37 l35 0 -29 -30z m980 4 c23 -36 15 -37 -13 -3 -13 16 -19 29 -14 29 5
0 17 -12 27 -26z m-927 -75 c-21 -37 -77 -75 -100 -67 -4 2 2 22 14 44 14 29
30 45 52 52 55 18 58 15 34 -29z m-125 -36 c-10 -21 -18 -40 -20 -42 -1 -2
-20 -7 -43 -11 -46 -8 -50 -1 -21 47 18 29 29 34 88 42 9 1 8 -10 -4 -36z
m-123 -23 c-13 -26 -27 -40 -40 -40 -25 0 -25 7 0 48 12 19 28 32 40 32 l20 0
-20 -40z m210 -39 c0 -12 -17 -29 -46 -46 -25 -15 -47 -25 -49 -23 -3 2 -1 17
3 33 6 22 17 31 48 41 21 6 40 12 42 13 1 1 2 -8 2 -18z m-127 -62 c-7 -27
-18 -37 -56 -52 -26 -11 -50 -17 -53 -15 -3 3 0 26 7 52 12 47 17 51 79 58 31
4 33 -1 23 -43z m-129 -6 c-7 -21 -13 -45 -14 -54 0 -17 -47 -36 -58 -24 -3 3
2 30 13 60 16 49 21 55 45 55 28 0 28 0 14 -37z m1301 11 c66 -34 54 -41 -69
-36 -183 7 -353 -19 -546 -85 -88 -30 -251 -109 -316 -154 -25 -17 -47 -29
-49 -27 -1 1 0 17 2 35 5 30 14 36 137 96 150 74 235 106 379 143 222 57 386
67 462 28z m-1059 -59 c-2 -7 -25 -27 -50 -45 l-46 -31 0 33 c0 42 7 51 55 76
40 20 40 20 43 0 2 -11 1 -25 -2 -33z m-124 -58 c-4 -42 -6 -45 -58 -70 l-55
-27 3 51 c3 51 4 52 48 69 64 26 66 25 62 -23z m110 -95 c-78 -71 -82 -72 -82
-9 0 53 0 53 53 88 l52 36 12 -36 c11 -35 11 -37 -35 -79z m-246 82 c-3 -9 -6
-33 -6 -55 0 -36 -3 -41 -35 -55 -46 -19 -45 -19 -45 25 0 73 17 96 74 100 13
1 16 -4 12 -15z m1571 -53 c52 -26 68 -52 52 -83 l-12 -23 -13 30 c-25 62 -44
70 -168 70 -98 0 -133 -6 -301 -48 -126 -31 -256 -55 -385 -71 -208 -26 -258
-36 -359 -66 -75 -24 -85 -24 -51 -5 67 39 236 76 425 94 138 12 420 72 542
115 60 21 218 14 270 -13z m-1435 -58 c5 -57 -1 -67 -64 -99 l-48 -24 0 59 0
59 48 25 c26 13 50 25 53 26 4 0 9 -20 11 -46z m154 -98 c-16 -41 -90 -124
-101 -113 -3 3 -9 37 -12 74 l-5 69 63 52 64 51 3 -46 c2 -25 -4 -64 -12 -87z
m996 85 c41 -31 60 -94 69 -225 20 -271 -35 -494 -165 -672 -53 -72 -110 -114
-203 -150 -70 -26 -162 -35 -216 -20 -26 7 -28 11 -22 40 22 98 57 121 184
123 99 0 153 15 159 44 2 13 -15 15 -100 15 -124 0 -184 19 -227 72 -17 21
-34 32 -41 28 -8 -5 -6 -13 8 -29 10 -11 29 -36 41 -54 l23 -33 -40 -34 c-22
-19 -49 -55 -61 -80 -12 -25 -25 -45 -30 -45 -22 0 -118 88 -174 160 -65 83
-90 85 -42 5 28 -48 144 -171 184 -197 l25 -15 -17 -44 c-29 -75 -31 -76 -72
-56 -31 15 -36 21 -31 42 8 32 -17 45 -85 45 -53 0 -135 37 -171 77 -28 30
-87 165 -100 224 -11 52 -10 58 10 84 23 29 29 65 11 65 -6 0 -22 -9 -36 -20
-39 -30 -86 -26 -128 11 -42 37 -61 70 -74 131 -26 115 67 214 164 174 27 -12
37 -25 52 -66 18 -50 18 -51 57 -48 57 4 63 21 41 116 -24 105 -18 125 47 158
49 25 131 54 154 54 6 0 9 -12 6 -29 -6 -45 15 -46 42 -2 14 22 29 42 33 44 4
3 91 15 193 27 194 22 260 35 400 74 105 30 102 30 132 6z m-1292 -64 c0 -63
-1 -64 -32 -75 -39 -14 -48 -4 -48 59 0 46 6 51 78 79 1 1 2 -28 2 -63z m156
-152 c-4 -11 -103 -40 -111 -32 -2 2 -7 26 -10 53 l-6 50 58 31 58 31 8 -60
c4 -33 6 -66 3 -73z m-146 6 c0 -46 -2 -50 -24 -50 -17 0 -26 7 -30 24 -3 13
-8 31 -11 38 -4 9 3 19 17 26 42 20 48 15 48 -38z m150 -708 c0 -13 90 -105
135 -138 29 -21 39 -35 37 -51 -4 -27 38 -111 80 -159 70 -79 177 -86 250 -17
27 25 28 26 78 12 l51 -14 -38 -44 c-42 -49 -187 -161 -209 -161 -15 0 -149
132 -239 235 -113 130 -183 263 -169 321 6 22 24 34 24 16z m1094 -299 c4 -47
3 -61 -7 -58 -89 27 -153 48 -156 51 -2 1 28 49 65 107 l69 103 11 -70 c7 -39
14 -99 18 -133z m-108 161 c-3 -9 -30 -50 -58 -91 -62 -90 -91 -105 -198 -107
-78 -1 -180 25 -180 47 0 6 5 27 11 46 7 20 13 41 15 48 2 8 15 7 46 -4 86
-30 246 0 323 61 26 20 49 21 41 0z m-432 -21 c-31 -143 -62 -196 -123 -214
-79 -24 -153 17 -201 111 l-20 40 70 0 70 0 -7 -30 c-8 -41 19 -70 63 -70 26
0 39 7 58 33 23 29 52 88 69 140 10 28 28 20 21 -10z m-153 -131 c-7 -2 -18 1
-23 6 -8 8 -4 9 13 5 13 -4 18 -8 10 -11z m501 -89 c6 -23 -8 -308 -18 -351
-6 -29 -8 -31 -19 -15 -6 10 -32 64 -57 119 -25 56 -62 126 -82 156 -20 30
-36 58 -36 62 0 3 12 6 28 7 15 0 47 8 72 19 60 24 106 25 112 3z m114 -46
l61 -38 -46 -80 c-25 -43 -61 -106 -80 -139 -19 -33 -35 -59 -37 -57 -1 1 4
56 12 122 7 66 13 146 14 178 0 32 3 57 8 55 4 -1 35 -20 68 -41z m-256 -204
c38 -78 70 -146 70 -152 0 -33 -205 64 -293 140 -15 12 33 126 71 170 l36 42
23 -29 c12 -16 54 -93 93 -171z m680 -161 c34 -35 59 -112 67 -207 5 -69 5
-72 -26 -102 -39 -40 -87 -48 -207 -36 l-89 8 -7 85 c-5 47 -12 105 -17 130
-7 33 -7 48 2 57 17 17 197 90 225 92 14 0 36 -11 52 -27z m-329 -117 c12 -28
23 -82 28 -136 7 -97 2 -109 -47 -109 -17 0 -21 11 -31 73 -36 225 -36 217 5
217 20 0 29 -9 45 -45z"/>
<path d="M1590 2295 c0 -13 7 -43 16 -66 20 -48 12 -59 -48 -59 -20 0 -40 -5
-43 -11 -10 -16 25 -49 53 -49 29 0 92 29 98 45 4 10 -63 165 -72 165 -2 0 -4
-11 -4 -25z"/>
<path d="M1099 2278 c5 -18 18 -53 30 -77 32 -61 19 -67 -104 -48 -5 1 -11 -8
-13 -21 -3 -18 4 -25 32 -37 48 -20 85 -19 124 5 41 25 44 66 6 99 -14 12 -35
42 -45 67 -23 51 -40 58 -30 12z"/>
<path d="M1344 2238 c9 -56 55 -140 116 -212 90 -105 90 -122 -7 -167 -110
-51 -174 -50 -184 4 -2 10 -8 19 -14 20 -16 3 -18 -54 -4 -81 13 -23 17 -24
87 -20 59 4 87 12 148 43 50 25 79 47 85 62 24 65 23 69 -38 135 -75 81 -128
154 -154 212 -26 59 -44 61 -35 4z"/>
<path d="M370 2050 c-26 -26 -27 -44 -1 -31 18 10 19 7 18 -49 -1 -35 3 -64
11 -72 9 -9 12 -4 12 24 0 48 16 88 35 88 8 0 24 -18 35 -40 11 -22 23 -40 25
-40 3 0 5 18 5 39 0 79 -90 131 -140 81z"/>
<path d="M1565 1794 c-22 -13 -64 -31 -92 -40 -51 -15 -53 -17 -53 -50 0 -40
14 -43 75 -15 41 19 79 55 110 104 21 33 13 33 -40 1z"/>
<path d="M1100 1762 c0 -15 44 -50 84 -67 21 -9 76 -19 122 -23 l84 -8 0 38 0
38 -74 0 c-66 0 -152 11 -198 26 -10 3 -18 1 -18 -4z"/>
<path d="M1789 675 c-42 -14 -88 -49 -77 -60 6 -7 104 43 118 60 7 8 11 15 9
14 -2 0 -25 -7 -50 -14z"/>
<path d="M1750 590 c-10 -7 7 -10 58 -10 46 0 71 4 67 10 -8 13 -105 13 -125
0z"/>
<path d="M1745 510 c-4 -6 24 -10 77 -9 57 1 75 4 58 9 -36 12 -128 12 -135 0z"/>
<path d="M14020 1900 l0 -1030 150 0 150 0 -2 1028 -3 1027 -147 3 -148 3 0
-1031z"/>
<path d="M13415 2826 c-117 -51 -135 -233 -31 -301 128 -84 293 17 273 167
-15 112 -138 180 -242 134z"/>
<path d="M2520 2825 c0 -3 131 -436 291 -962 159 -527 292 -966 295 -975 5
-16 22 -18 172 -18 l167 0 314 968 c173 532 316 973 318 980 4 9 -32 12 -155
12 l-160 0 -11 -32 c-6 -18 -85 -283 -177 -588 -153 -512 -274 -954 -274
-1003 0 -48 -19 7 -49 139 -35 157 -78 316 -272 1006 l-134 478 -162 0 c-90 0
-163 -2 -163 -5z"/>
<path d="M12000 1850 l0 -980 150 0 150 0 0 430 0 430 335 0 335 0 0 125 0
125 -335 0 -335 0 0 300 0 300 360 0 360 0 0 125 0 125 -510 0 -510 0 0 -980z"/>
<path d="M11243 2582 l-143 -46 0 -128 0 -128 -100 0 -100 0 0 -110 0 -110
100 0 100 0 0 -412 c0 -233 5 -440 10 -476 25 -150 90 -246 202 -298 60 -27
70 -29 193 -28 85 0 143 6 169 15 l39 14 -2 110 c-1 60 -3 111 -5 112 -2 2
-27 -2 -57 -7 -86 -17 -147 -4 -190 39 -20 20 -42 54 -48 76 -7 26 -11 181
-11 448 l0 407 165 0 165 0 0 110 0 110 -165 0 -165 0 0 169 c0 94 -3 172 -7
174 -5 2 -72 -17 -150 -41z"/>
<path d="M4585 2299 c-78 -11 -186 -44 -250 -76 -27 -14 -51 -27 -53 -28 -3
-3 57 -195 62 -195 1 0 26 12 56 26 124 60 300 81 409 48 99 -29 161 -123 161
-246 l0 -48 -52 0 c-238 0 -486 -80 -602 -194 -248 -241 -143 -666 182 -735
160 -34 325 13 443 126 l57 54 5 -33 c3 -18 9 -54 13 -80 l6 -48 135 0 135 0
-7 23 c-4 12 -11 243 -15 512 -6 409 -10 500 -23 548 -40 138 -119 243 -226
297 -106 53 -274 72 -436 49z m393 -871 c-3 -144 -5 -156 -31 -210 -93 -188
-369 -215 -448 -43 -23 50 -25 161 -3 213 48 117 200 184 427 190 l59 2 -4
-152z"/>
<path d="M6055 2301 c-315 -69 -515 -388 -492 -786 19 -322 188 -561 438 -620
176 -41 337 1 457 121 l62 62 0 -111 c0 -239 -72 -377 -229 -439 -47 -19 -75
-22 -176 -22 -132 0 -204 15 -312 64 -35 16 -63 28 -63 27 0 -1 -13 -49 -30
-107 -16 -58 -30 -110 -30 -116 0 -15 83 -50 178 -75 98 -26 317 -36 422 -20
281 44 451 204 511 481 23 101 24 153 32 1183 l2 338 -130 -3 -130 -3 -5 -82
c-3 -45 -7 -84 -10 -87 -3 -3 -21 16 -40 42 -76 101 -179 151 -325 157 -49 2
-108 0 -130 -4z m273 -251 c59 -27 91 -53 128 -106 56 -78 66 -141 62 -379 -3
-207 -4 -211 -32 -273 -58 -125 -164 -189 -300 -180 -152 10 -255 109 -303
291 -20 76 -22 257 -4 342 31 145 124 273 224 308 62 23 173 21 225 -3z"/>
<path d="M7733 2295 c-101 -31 -190 -109 -246 -213 l-34 -63 -6 83 c-4 46 -7
104 -7 131 l0 47 -131 0 -132 0 7 -92 c3 -50 6 -367 6 -705 l0 -613 150 0 150
0 0 410 c0 499 7 543 102 646 63 69 123 94 226 94 l82 0 0 139 c0 117 -2 140
-16 145 -26 10 -106 6 -151 -9z"/>
<path d="M8435 2299 c-78 -11 -186 -44 -250 -76 -27 -14 -51 -27 -53 -28 -3
-3 57 -195 62 -195 1 0 26 12 56 26 124 60 300 81 409 48 99 -29 161 -123 161
-246 l0 -48 -52 0 c-238 0 -486 -80 -602 -194 -248 -241 -143 -666 182 -735
160 -34 325 13 443 126 l57 54 5 -33 c3 -18 9 -54 13 -80 l6 -48 135 0 135 0
-7 23 c-4 12 -11 243 -15 512 -6 409 -10 500 -23 548 -40 138 -119 243 -226
297 -106 53 -274 72 -436 49z m393 -871 c-3 -144 -5 -156 -31 -210 -93 -188
-369 -215 -448 -43 -23 50 -25 161 -3 213 48 117 200 184 427 190 l59 2 -4
-152z"/>
<path d="M10071 2294 c-108 -29 -202 -92 -279 -189 l-31 -40 -1 46 c0 25 -3
74 -6 108 l-7 61 -130 0 -130 0 6 -112 c4 -62 7 -380 7 -705 l0 -593 150 0
149 0 3 478 3 477 26 56 c31 65 82 120 142 151 34 18 59 23 127 23 102 0 148
-20 197 -84 66 -85 67 -94 71 -623 l3 -478 150 0 150 0 -4 503 c-4 553 -5 565
-69 694 -92 188 -315 284 -527 227z"/>
<path d="M15110 2294 c-173 -37 -322 -157 -404 -325 -66 -136 -89 -243 -89
-409 0 -104 5 -155 21 -223 50 -202 164 -352 327 -428 109 -51 176 -64 335
-63 155 1 228 11 353 51 71 22 78 27 73 46 -3 12 -13 56 -22 97 -9 41 -19 78
-23 82 -3 4 -44 -5 -91 -19 -75 -23 -103 -27 -235 -27 -135 -1 -156 1 -207 22
-71 29 -155 103 -191 171 -27 49 -56 159 -57 213 l0 28 448 2 447 3 3 112 c12
468 -283 755 -688 667z m252 -231 c88 -48 142 -146 155 -280 l6 -63 -312 0
c-171 0 -311 3 -311 8 1 32 35 143 59 191 37 72 116 146 180 166 67 22 159 13
223 -22z"/>
<path d="M13340 1575 l0 -705 150 0 150 0 0 705 0 705 -150 0 -150 0 0 -705z"/>
</g>
</svg>
